<?xml version="1.0" standalone="no"?>
<!DOCTYPE svg PUBLIC "-//W3C//DTD SVG 20010904//EN"
 "http://www.w3.org/TR/2001/REC-SVG-20010904/DTD/svg10.dtd">
<svg version="1.0" xmlns="http://www.w3.org/2000/svg"
 width="1600.000000pt" height="1200.000000pt" viewBox="0 0 1600.000000 1200.000000"
 preserveAspectRatio="xMidYMid meet">
<metadata>
Created by potrace 1.15, written by Peter Selinger 2001-2017
</metadata>
<g transform="translate(0.000000,1200.000000) scale(0.100000,-0.100000)"
fill="#000000" stroke="none">
<path d="M5380 8838 c-19 -5 -46 -12 -60 -15 -38 -9 -102 -56 -148 -110 -39
-44 -82 -133 -82 -168 0 -8 -4 -17 -10 -20 -14 -9 -14 -3601 0 -3610 6 -3 10
-27 10 -53 0 -60 36 -350 50 -405 61 -232 122 -396 187 -499 12 -21 23 -40 23
-44 0 -3 20 -32 45 -64 25 -32 45 -62 45 -67 0 -4 9 -14 20 -21 11 -7 20 -17
20 -23 0 -11 83 -96 111 -114 43 -28 109 -80 109 -87 0 -4 7 -8 15 -8 8 0 15
-4 15 -8 0 -4 12 -13 28 -20 15 -7 45 -23 67 -35 87 -51 161 -87 177 -87 9 0
18 -4 20 -8 5 -12 232 -83 313 -98 39 -7 120 -22 180 -34 243 -46 451 -54
1430 -54 1109 0 1250 8 1610 90 133 30 227 55 240 64 6 4 40 17 76 28 36 12
92 36 125 54 32 18 78 42 101 52 24 11 43 23 43 28 0 4 7 8 15 8 8 0 15 5 15
10 0 6 7 10 15 10 8 0 15 5 15 10 0 6 7 10 15 10 9 0 18 7 21 15 4 8 11 15 16
15 6 0 19 11 30 25 11 14 24 25 30 25 6 0 35 26 64 57 29 32 62 67 72 78 10
11 21 28 25 38 3 9 11 17 17 17 5 0 10 4 10 9 0 5 29 55 65 112 36 57 65 110
65 117 0 7 11 34 24 60 52 105 117 361 143 567 17 130 18 277 18 2010 l0 1870
-26 55 c-41 85 -99 144 -187 187 l-76 38 -923 3 -923 3 0 -210 c0 -115 4 -212
8 -215 5 -3 14 -34 22 -70 7 -36 16 -66 20 -66 3 0 14 -15 25 -32 22 -38 105
-118 122 -118 6 0 13 -4 15 -9 2 -4 31 -18 66 -30 60 -20 76 -21 575 -21 l512
0 -1 -1648 c-2 -1509 -3 -1655 -19 -1747 -35 -201 -98 -344 -198 -452 -135
-144 -312 -224 -602 -274 -158 -27 -631 -37 -1530 -33 -873 4 -1002 12 -1235
80 -84 25 -270 112 -270 127 0 4 -5 7 -12 7 -6 0 -18 7 -27 15 -9 8 -35 31
-58 51 -24 20 -43 43 -43 50 0 8 -4 14 -9 14 -16 0 -86 122 -115 200 -15 41
-37 113 -49 160 -21 85 -21 91 -24 1768 l-4 1682 691 0 691 0 -4 203 c-3 200
-15 287 -47 347 -54 102 -136 172 -237 200 -65 19 -102 20 -798 19 -428 -1
-744 -5 -765 -11z"/>
</g>
</svg>
